# xmcd
#
# Track frame offsets:
#	150
#	19249
#	27269
#	54618
#	71961
#	92547
#	99487
#	105557
#	121527
#	158615
#	167295
#	187340
#	192421
#
# Disc length: 2735 seconds
#
# Revision: 0
# Processed by: cddbd v1.5.2PL0 Copyright (c) Steve Scherf et al.
# Submitted via: SynApp - FreeCDDB Version: 2.2
#
DISCID=a40aad0d
DTITLE=15 - ss
DYEAR=2007
DGENRE=Acid Jazz
TTITLE0=david_arnold-stairwell_fight
TTITLE1=david_arnold-vesper
TTITLE2=david_arnold-bond_loses_it_all
TTITLE3=16 - david_arnold-dirty_martini
TTITLE4=17 - david_arnold-bond_wins_it_all
TTITLE5=18 - david_arnold-the_end_of_an_aston_martin
TTITLE6=19 - david_arnold-the_bad_die_young
TTITLE7=20 - david_arnold-city_of_lovers
TTITLE8=21 - david_arnold-the_switch
TTITLE9=22 - david_arnold-fall_of_a_house_in_venice
TTITLE10=23 - david_arnold-death_of_vesper
TTITLE11=24 - david_arnold-the_bitch_is_dead
TTITLE12=25 - david_arnold-the_names_bond...james_bond
EXTD=
EXTT0=
EXTT1=
EXTT2=
EXTT3=
EXTT4=
EXTT5=
EXTT6=
EXTT7=
EXTT8=
EXTT9=
EXTT10=
EXTT11=
EXTT12=
PLAYORDER=
